<svg width="256" height="85" viewBox="0 0 256 85" fill="none" xmlns="http://www.w3.org/2000/svg">
<path fill-rule="evenodd" clip-rule="evenodd" d="M221.7 45.1V37.4H208.5V26.5H219V18.8H208.5V8H221.7V0.400002H200.9V45.1H221.7ZM196.5 0.400002H188.9L182.3 22L175.5 0.400002H167.9V45.1H175.5V23.1L178.5 34.5H185.9L188.9 23.1V45.1H196.5V0.400002ZM151.5 8H157V37.3H151.5V8ZM164.7 5.1C164.7 2.5 162.5 0.400002 160 0.400002H148.6C146 0.400002 143.9 2.5 143.9 5.1V40.4C143.9 42.9 146 45.1 148.6 45.1H160C162.5 45.1 164.7 43 164.7 40.4V5.1ZM139.7 26.8L132 28.6V37.3H126.5V8H132V16L139.7 14.2V5.1C139.7 2.5 137.5 0.400002 135 0.400002H123.6C121 0.400002 118.9 2.5 118.9 5.1V40.4C118.9 42.9 121 45.1 123.6 45.1H135C137.5 45.1 139.7 43 139.7 40.4V26.8ZM115.2 45.1V37.4H104.6V0.400002H97V45.1H115.2ZM93.8 45.1V37.4H80.6V26.5H91.1V18.8H80.6V8H93.8V0.400002H73V45.1H93.8ZM69.3 0.400002H61.6L61.1 37.4H60.3L55.4 0.400002H47.8L43 37.4H42.2L41.6 0.400002H34L35 45.1H49.5L51.5 26.6L53.5 45.1H68L69.3 0.400002ZM48.5 61L51.3 56.1H54.3L51.5 61H54L53.3 62.5H50.8L44.3 73.7C43.6 74.8 43.9 75.3 44.6 75.3C45.9 75.3 48 73.3 50.2 70.8L50.4 70.6L51.6 68.5L53.1 65.9C54.9 62.9 56.7 62 59 62C61.8 62 63.5 65 61.7 68.1L58.9 72.9C60.5 72.9 62.1 72.2 63.5 70.7L63.7 70.5C64.1 70.6 64.6 71.1 64.8 71.5C63.2 73.3 60.4 74.4 58.6 74.4H57.9C54.6 78.4 49.3 77.7 49.3 73.9C47.4 75.7 45.5 77 43.7 77C41.2 77 40.3 75 41.6 72.8L47.7 62.4H44.9L45.8 61H48.5ZM59.2 66.9C60.2 65.2 59.8 64 58.8 63.9C58.1 63.9 57 64.5 56.1 66.1L54.6 68.5L52.3 72.4C50.5 75.5 54 75.9 55.4 73.5V73.4C55.2 73.1 55.1 72.8 55.1 72.4C55.1 71.4 55.9 70.6 56.9 70.6H57L59.2 66.9ZM78 61L80.8 56.1L84 56.2L81.2 61.1H83.7L82.8 62.5H80.3L73.8 73.7C73.1 74.8 73.4 75.3 74.1 75.3C75.4 75.3 77.5 73.3 79.7 70.8L79.9 70.6L88.3 56.2H91.3L86.5 64.5C88 62.9 89.4 62.2 90.7 62.2C92.4 62.2 93.6 63.8 92.3 66.1L87.9 73.6C87.3 74.7 87.6 75.2 88.3 75.2C89.6 75.2 91.7 73.2 93.9 70.7L94.1 70.5L97 65.5C98.3 63.4 100.3 62.1 102.7 62.1C105.2 62.1 106.7 64.1 105.1 66.9L104.7 67.6C102.4 71.4 98.7 71.8 96.8 71L96.5 71.5C95.1 74 96.2 75.1 98.1 75.1C100.2 75.1 103 73.1 105.2 70.6L105.4 70.4C105.8 70.5 106.3 71 106.5 71.4C104 74.3 100.6 76.9 97.2 76.9C94.8 76.9 93.2 75.6 93.1 73.7C91.2 75.5 89.2 76.9 87.4 76.9C84.9 76.9 84 74.9 85.3 72.7L89.2 66C90.5 63.8 88.4 63 83.8 68.8L79.2 76.7H76.2L77 75.4C75.6 76.4 74.3 77 73.1 77C70.6 77 69.7 75 71 72.8L77.2 62.4H74.4L75.3 61H78ZM102.6 66.9C103.6 65.2 103.1 64.2 102.1 64.3C101.3 64.4 100.3 65 99.6 66.2L97.7 69.6C98.8 70 100.8 70 102.2 67.6L102.6 66.9ZM145.6 63.5C144.5 62.1 144.7 60.4 146.4 58.9L148.3 60.8C147.7 61.4 147.7 62 148.1 62.5L149.8 64.5C150.8 65.6 151.2 66.7 150.2 68.5L147.2 73.7C146.5 74.8 146.8 75.3 147.5 75.3C148.8 75.3 150.9 73.3 153.1 70.8L153.3 70.6L156.2 65.7C157.5 63.6 159.8 62.3 161.4 62.3C163.3 62.3 164.6 64 164.6 65.2H166.4L159.6 76.6C162 75.6 164.1 73.7 166.6 70.9L166.8 70.7L169.7 65.7C171 63.6 173 62.3 175.4 62.3C177.9 62.3 179.4 64.3 177.8 67.1L177.4 67.8C175.1 71.6 171.4 72 169.5 71.2L169.2 71.7C167.8 74.2 168.9 75.3 170.8 75.3C172.9 75.3 175.7 73.3 177.9 70.8L178.1 70.6L179.3 68.5L180.8 65.9C182.6 62.9 184.4 62 186.7 62C189.5 62 191.2 65 189.4 68.1L186.6 72.9C188.2 72.9 189.8 72.2 191.2 70.7L191.4 70.5L196.1 62.4H199.1L193.2 72.6C193.15 72.6875 193.094 72.7813 193.035 72.8789C192.625 73.5625 192.1 74.4375 192.8 74.7C193.3 74.9 195.1 73.8 197.4 71.7L202.8 62.4H205.8L199.4 73.6C198.7 74.7 199 75.2 199.7 75.2C201 75.2 203.1 73.2 205.3 70.7L205.5 70.5C208.2 67.4 211 63.5 212.2 61.8L214.5 63C213.434 65.2514 213.069 67.7133 212.741 69.9284C212.516 71.4521 212.308 72.8589 211.9 74C213.2 73.1 214.4 72 215.5 70.8L215.7 70.6C216.1 70.7 216.6 71.1 216.8 71.6C214.5 74.2 211.5 76.6 208.4 77H208.3C208.1 77.1 207.8 77.1 207.5 77.1C204.8 77.1 204.2 74.7 204.2 74.7L206.1 73.7C206.1 73.7 206.5 74.8 207.5 74.8C209.351 74.8 209.716 72.3538 210.097 69.7999C210.293 68.4897 210.493 67.1511 210.9 66.1C210.631 66.4421 210.339 66.82 210.025 67.225C209.055 68.4774 207.885 69.9887 206.6 71.5C204.1 74.4 201.2 77 198.7 77C196.8 77 195.8 75.7 196.1 74.1C194.6 75.5 192.8 77 191.1 77C189.3 77 188.6 75.6 189.4 73.5C188.2 74.1 186.9 74.4 186 74.4H185.3C182 78.5 176.6 77.7 176.7 73.8C174.6 75.6 172.2 77 169.7 77C167.3 77 165.7 75.7 165.6 73.8C163.1 76.2 160.7 77.6 158.2 78.4L155.9 82.3C153.7 86 149.3 85.4 149.3 82.5C149.3 80.3 151.8 78.6 155.9 77.4L156.7 76C155.7 76.6 154.6 77 153.8 77C152.1 77 151.1 76 151.2 74.6C149.6 76 147.9 77 146.4 77C143.9 77 143 75 144.3 72.8L147.5 67.3C147.8 66.7 147.7 66.1 147.3 65.6L146.9 65.1C144.5 68.3 143.3 69.8 141.9 71.5C140.3 73.3 137.5 74.4 135.7 74.4H135C131.7 78.5 126.4 77.7 126.4 73.9C124 76.3 121.6 77.7 119.2 78.4L116.9 82.3C114.7 86 110.3 85.4 110.3 82.5C110.3 80.3 112.8 78.6 116.9 77.4L117.7 76C116.7 76.6 115.6 77 114.8 77C112.3 77 111.4 75 112.7 72.8L116.9 65.6C118.2 63.5 120.5 62.2 122.1 62.2C124 62.2 125.3 63.9 125.3 65.1H127.1L120.3 76.5C122.7 75.5 124.8 73.6 127.3 70.8L127.5 70.6L128.7 68.5L130.2 65.9C132 62.9 133.8 62 136.1 62C138.9 62 140.6 65 138.8 68.1L136 72.9C137.6 72.9 139.2 72.2 140.6 70.7L140.8 70.5C142.8 68.2 144.6 65.7 145.9 63.8L145.6 63.5ZM136.5 66.9C137.6 65.2 137.1 64 136.1 63.9C135.3 63.9 134.3 64.5 133.4 66.1L131.9 68.5L129.6 72.4C127.8 75.5 131.3 75.9 132.7 73.5V73.4C132.5 73.1 132.4 72.8 132.4 72.4C132.4 71.4 133.2 70.6 134.2 70.6H134.3L136.5 66.9ZM186.7 66.9C187.8 65.2 187.3 64 186.3 63.9C185.5 63.9 184.4 64.5 183.6 66.1L182.1 68.5L179.8 72.4C178 75.5 181.5 75.9 182.9 73.5V73.4C182.7 73.1 182.6 72.8 182.6 72.4C182.6 71.4 183.4 70.6 184.4 70.6H184.5L186.7 66.9ZM175.1 66.9C176.1 65.2 175.6 64.2 174.6 64.3C173.8 64.4 172.8 65 172.1 66.2L170.2 69.6C171.3 70 173.2 70 174.7 67.6L175.1 66.9ZM123 66.9C123.9 65.4 123.2 64.5 122.2 64.5C121.4 64.5 120.4 65.1 119.7 66.3L115.5 73.6C114.8 74.7 115.1 75.2 115.8 75.2C117 75.2 118.9 73.8 120.7 70.9L123 66.9ZM161.9 66.9C162.8 65.4 162.1 64.5 161.1 64.5C160.3 64.5 159.3 65.1 158.6 66.3L154.4 73.6C153.7 74.7 154 75.2 154.7 75.2C155.9 75.2 157.8 73.8 159.6 70.9L161.9 66.9ZM114.4 81.8L115.8 79.4C113.5 80.3 112.7 81.2 112.7 81.9C112.7 82.7 113.8 82.9 114.4 81.8ZM153.3 81.8L154.7 79.4C152.4 80.3 151.7 81.2 151.6 81.9C151.6 82.7 152.7 82.9 153.3 81.8ZM28.9 67.8H0V69.7H28.9V67.8ZM256 67.8H227.1V69.7H256V67.8Z" fill="#81B3D3"/>
</svg>
